HIERARCHY
ROOT Hips
{
	OFFSET 0.000000 0.000000 0.000000
	CHANNELS 6 Xposition Yposition Zposition Yrotation Xrotation Zrotation
	JOINT Chest
	{
		OFFSET 0.000000 -0.009281 11.569106
		CHANNELS 3 Yrotation Xrotation Zrotation
		JOINT Chest2
		{
			OFFSET -0.000000 0.016865 9.269641
			CHANNELS 3 Yrotation Xrotation Zrotation
			JOINT Chest3
			{
				OFFSET -0.000000 0.000001 8.374491
				CHANNELS 3 Yrotation Xrotation Zrotation
				JOINT Chest4
				{
					OFFSET -0.000000 0.000001 8.374493
					CHANNELS 3 Yrotation Xrotation Zrotation
					JOINT Neck
					{
						OFFSET -0.000000 0.000002 12.152554
						CHANNELS 3 Yrotation Xrotation Zrotation
						JOINT Head
						{
							OFFSET -0.000000 0.040101 7.802319
							CHANNELS 3 Yrotation Xrotation Zrotation
							End Site
							{
								OFFSET -0.000000 0.020947 14.853096
							}
						}
					}
					JOINT RightCollar
					{
						OFFSET 2.894404 0.000001 6.791374
						CHANNELS 3 Yrotation Xrotation Zrotation
						JOINT RightShoulder
						{
							OFFSET 13.574684 0.000001 0.000000
							CHANNELS 3 Yrotation Xrotation Zrotation
							JOINT RightElbow
							{
								OFFSET 23.923903 0.000002 0.000000
								CHANNELS 3 Yrotation Xrotation Zrotation
								JOINT RightWrist
								{
									OFFSET 19.846718 0.012767 0.000000
									CHANNELS 3 Yrotation Xrotation Zrotation
									End Site
									{
										OFFSET 14.973145 0.000001 0.000000
									}
								}
							}
						}
					}
					JOINT LeftCollar
					{
						OFFSET -2.894404 0.000001 6.791374
						CHANNELS 3 Yrotation Xrotation Zrotation
						JOINT LeftShoulder
						{
							OFFSET -13.574684 -0.000001 0.000000
							CHANNELS 3 Yrotation Xrotation Zrotation
							JOINT LeftElbow
							{
								OFFSET -23.923903 -0.000002 0.000000
								CHANNELS 3 Yrotation Xrotation Zrotation
								JOINT LeftWrist
								{
									OFFSET -19.846718 0.012763 0.000000
									CHANNELS 3 Yrotation Xrotation Zrotation
									End Site
									{
										OFFSET -14.973145 -0.000001 0.000000
									}
								}
							}
						}
					}
				}
			}
		}
	}
	JOINT RightHip
	{
		OFFSET 9.469263 0.004643 0.045487
		CHANNELS 3 Yrotation Xrotation Zrotation
		JOINT RightKnee
		{
			OFFSET 0.000000 0.002661 -40.478676
			CHANNELS 3 Yrotation Xrotation Zrotation
			JOINT RightAnkle
			{
				OFFSET 0.000000 0.049106 -35.224068
				CHANNELS 3 Yrotation Xrotation Zrotation
				JOINT RightToe
				{
					OFFSET -0.000001 12.539529 -6.151390
					CHANNELS 3 Yrotation Xrotation Zrotation
					End Site
					{
						OFFSET -0.000001 5.044994 -1.291870
					}
				}
			}
		}
	}
	JOINT LeftHip
	{
		OFFSET -9.469263 0.004641 0.045487
		CHANNELS 3 Yrotation Xrotation Zrotation
		JOINT LeftKnee
		{
			OFFSET 0.000000 0.002661 -40.478676
			CHANNELS 3 Yrotation Xrotation Zrotation
			JOINT LeftAnkle
			{
				OFFSET 0.000000 0.049106 -35.224068
				CHANNELS 3 Yrotation Xrotation Zrotation
				JOINT LeftToe
				{
					OFFSET -0.000001 12.539529 -6.151390
					CHANNELS 3 Yrotation Xrotation Zrotation
					End Site
					{
						OFFSET -0.000001 5.044994 -1.291870
					}
				}
			}
		}
	}
}
MOTION
Frames: 5
Frame Time: 0.016667
-43.964203 45.872375 83.055252 -2.693354 -1.705216 -99.616444 -2.283297 -3.984419 0.543486 -1.013780 -1.771254 0.216957 -1.013780 -1.771255 0.216957 -0.759647 -1.328805 0.159765 6.398873 -21.514859 -8.548038 9.140387 -3.582315 -13.645664 8.812300 0.111444 -2.979224 47.144131 -17.122772 -6.785274 20.274882 -36.169287 40.562595 -24.882705 37.457980 68.833041 -7.872216 3.688623 -4.724330 -44.489923 -2.108883 14.045041 -29.476033 -53.978145 -24.813031 13.062046 7.301547 -52.972642 -17.443002 16.481407 -22.585533 -0.814271 -8.305289 -22.652384 5.096946 -15.295444 13.595199 0.870752 0.301424 -0.002986 -7.404255 -4.564393 -5.596938 -1.652122 -10.635167 10.056476 4.614144 5.888731 8.076107 2.770916 7.442939 0.177189 
-43.989025 45.912487 83.048622 -2.751962 -1.753276 -99.860671 -2.263095 -3.945349 0.534127 -1.006669 -1.755030 0.212101 -1.006670 -1.755031 0.212099 -0.754335 -1.316628 0.156172 6.382552 -21.541223 -8.554121 9.110915 -3.632035 -13.661987 8.821620 0.120197 -2.973190 47.138814 -17.120177 -6.786869 20.236763 -36.168611 40.513342 -24.872460 37.480810 68.836217 -7.875982 3.683681 -4.718853 -44.482290 -2.192515 14.012105 -29.502886 -53.951558 -24.761461 13.045885 7.325604 -52.951694 -17.676466 16.136182 -22.966970 -0.839505 -8.297538 -22.603068 5.183765 -15.427741 13.659361 0.804836 0.360868 -0.001049 -7.417066 -4.672042 -5.465305 -1.667785 -10.498715 10.081457 4.682767 5.878416 8.211300 2.755425 7.388555 0.174090 
-44.001083 45.957134 83.037628 -2.804859 -1.787965 -100.117254 -2.247747 -3.910722 0.529124 -1.000281 -1.741767 0.207608 -1.000281 -1.741768 0.207607 -0.749562 -1.306671 0.152843 6.352186 -21.562414 -8.549088 9.058895 -3.673004 -13.662106 8.830283 0.147404 -2.966784 47.124388 -17.149992 -6.783621 20.199654 -36.169625 40.464684 -24.861757 37.508957 68.839749 -7.875670 3.694650 -4.709618 -44.487515 -2.239448 14.004930 -29.515747 -53.937987 -24.719160 13.037670 7.329702 -52.920811 -17.904245 15.810085 -23.336576 -0.873962 -8.280979 -22.593687 5.260737 -15.583743 13.766036 0.739859 0.415533 0.001510 -7.444361 -4.787481 -5.358540 -1.693654 -10.351856 10.058060 4.773568 5.881125 8.410563 2.735996 7.320351 0.169689 
-44.000919 46.004250 83.021881 -2.867508 -1.811554 -100.377485 -2.236651 -3.891636 0.528188 -0.995973 -1.735489 0.205433 -0.995972 -1.735488 0.205432 -0.746338 -1.301955 0.151234 6.313394 -21.571271 -8.535277 8.993315 -3.691643 -13.648472 8.834920 0.184563 -2.977338 47.119918 -17.188922 -6.776428 20.154491 -36.169560 40.419926 -24.851771 37.532023 68.846681 -7.864749 3.695723 -4.720310 -44.501268 -2.228839 14.010708 -29.524664 -53.936788 -24.691511 13.036361 7.325468 -52.886882 -18.121443 15.470723 -23.727454 -0.922308 -8.230050 -22.602459 5.331674 -15.762302 13.773139 0.667192 0.456545 0.004667 -7.484654 -4.910870 -5.296568 -1.736701 -10.222000 10.067445 4.874832 5.906572 8.605897 2.716307 7.246272 0.166194 
-44.001938 46.051281 83.003166 -2.938288 -1.826221 -100.638910 -2.230167 -3.883248 0.526964 -0.993009 -1.734765 0.205706 -0.993009 -1.734765 0.205705 -0.744117 -1.301412 0.151448 6.268148 -21.570747 -8.512500 8.917990 -3.693283 -13.620254 8.832709 0.176356 -2.982103 47.118562 -17.190416 -6.746589 20.117644 -36.158718 40.383299 -24.843408 37.550560 68.851046 -7.849513 3.696285 -4.716608 -44.521406 -2.218525 14.003538 -29.544796 -53.929893 -24.659408 13.044325 7.322939 -52.868461 -18.347602 15.117982 -24.159218 -0.944322 -8.156212 -22.644724 5.399560 -15.952552 13.819949 0.569723 0.481828 0.007663 -7.533573 -5.029324 -5.256726 -1.785684 -10.112410 10.136551 4.988147 5.942892 8.726376 2.683120 7.169193 0.163559 
